<svg width="208" height="45" viewBox="0 0 208 45" fill="none" xmlns="http://www.w3.org/2000/svg">
<path d="M0.264 34V0.399998H12.696C15.384 0.399998 17.608 0.847998 19.368 1.744C21.128 2.64 22.44 3.872 23.304 5.44C24.168 7.008 24.6 8.768 24.6 10.72C24.6 12.576 24.184 14.288 23.352 15.856C22.52 17.392 21.224 18.64 19.464 19.6C17.704 20.528 15.448 20.992 12.696 20.992H6.408V34H0.264ZM6.408 16H12.312C14.456 16 15.992 15.536 16.92 14.608C17.88 13.648 18.36 12.352 18.36 10.72C18.36 9.056 17.88 7.76 16.92 6.832C15.992 5.872 14.456 5.392 12.312 5.392H6.408V16ZM39.4815 34.576C37.1775 34.576 35.0975 34.048 33.2415 32.992C31.4175 31.936 29.9615 30.48 28.8735 28.624C27.8175 26.736 27.2895 24.56 27.2895 22.096C27.2895 19.632 27.8335 17.472 28.9215 15.616C30.0095 13.728 31.4655 12.256 33.2895 11.2C35.1455 10.144 37.2255 9.616 39.5295 9.616C41.8015 9.616 43.8495 10.144 45.6735 11.2C47.5295 12.256 48.9855 13.728 50.0415 15.616C51.1295 17.472 51.6735 19.632 51.6735 22.096C51.6735 24.56 51.1295 26.736 50.0415 28.624C48.9855 30.48 47.5295 31.936 45.6735 32.992C43.8175 34.048 41.7535 34.576 39.4815 34.576ZM39.4815 29.248C41.0815 29.248 42.4735 28.656 43.6575 27.472C44.8415 26.256 45.4335 24.464 45.4335 22.096C45.4335 19.728 44.8415 17.952 43.6575 16.768C42.4735 15.552 41.0975 14.944 39.5295 14.944C37.8975 14.944 36.4895 15.552 35.3055 16.768C34.1535 17.952 33.5775 19.728 33.5775 22.096C33.5775 24.464 34.1535 26.256 35.3055 27.472C36.4895 28.656 37.8815 29.248 39.4815 29.248ZM57.1669 44.56V10.192H62.6389L63.3109 13.6C64.0789 12.544 65.0869 11.616 66.3349 10.816C67.6149 10.016 69.2629 9.616 71.2789 9.616C73.5189 9.616 75.5189 10.16 77.2789 11.248C79.0389 12.336 80.4309 13.824 81.4549 15.712C82.4789 17.6 82.9909 19.744 82.9909 22.144C82.9909 24.544 82.4789 26.688 81.4549 28.576C80.4309 30.432 79.0389 31.904 77.2789 32.992C75.5189 34.048 73.5189 34.576 71.2789 34.576C69.4869 34.576 67.9189 34.24 66.5749 33.568C65.2309 32.896 64.1429 31.952 63.3109 30.736V44.56H57.1669ZM69.9829 29.2C71.9349 29.2 73.5509 28.544 74.8309 27.232C76.1109 25.92 76.7509 24.224 76.7509 22.144C76.7509 20.064 76.1109 18.352 74.8309 17.008C73.5509 15.664 71.9349 14.992 69.9829 14.992C67.9989 14.992 66.3669 15.664 65.0869 17.008C63.8389 18.32 63.2149 20.016 63.2149 22.096C63.2149 24.176 63.8389 25.888 65.0869 27.232C66.3669 28.544 67.9989 29.2 69.9829 29.2ZM100.143 34.576C97.7114 34.576 95.5674 34.048 93.7114 32.992C91.8554 31.936 90.3834 30.464 89.2954 28.576C88.2394 26.688 87.7114 24.528 87.7114 22.096C87.7114 19.664 88.2394 17.504 89.2954 15.616C90.3834 13.728 91.8554 12.256 93.7114 11.2C95.5674 10.144 97.7114 9.616 100.143 9.616C103.183 9.616 105.743 10.416 107.823 12.016C109.903 13.584 111.231 15.76 111.807 18.544H105.327C105.007 17.392 104.367 16.496 103.407 15.856C102.479 15.184 101.375 14.848 100.095 14.848C98.3994 14.848 96.9594 15.488 95.7754 16.768C94.5914 18.048 93.9994 19.824 93.9994 22.096C93.9994 24.368 94.5914 26.144 95.7754 27.424C96.9594 28.704 98.3994 29.344 100.095 29.344C101.375 29.344 102.479 29.024 103.407 28.384C104.367 27.744 105.007 26.832 105.327 25.648H111.807C111.231 28.336 109.903 30.496 107.823 32.128C105.743 33.76 103.183 34.576 100.143 34.576ZM125.469 34.576C123.421 34.576 121.741 34.256 120.429 33.616C119.117 32.944 118.141 32.064 117.501 30.976C116.861 29.888 116.541 28.688 116.541 27.376C116.541 25.168 117.405 23.376 119.133 22C120.861 20.624 123.453 19.936 126.909 19.936H132.957V19.36C132.957 17.728 132.493 16.528 131.565 15.76C130.637 14.992 129.485 14.608 128.109 14.608C126.861 14.608 125.773 14.912 124.845 15.52C123.917 16.096 123.341 16.96 123.117 18.112H117.117C117.277 16.384 117.853 14.88 118.845 13.6C119.869 12.32 121.181 11.344 122.781 10.672C124.381 9.968 126.173 9.616 128.157 9.616C131.549 9.616 134.221 10.464 136.173 12.16C138.125 13.856 139.101 16.256 139.101 19.36V34H133.869L133.293 30.16C132.589 31.44 131.597 32.496 130.317 33.328C129.069 34.16 127.453 34.576 125.469 34.576ZM126.861 29.776C128.621 29.776 129.981 29.2 130.941 28.048C131.933 26.896 132.557 25.472 132.813 23.776H127.581C125.949 23.776 124.781 24.08 124.077 24.688C123.373 25.264 123.021 25.984 123.021 26.848C123.021 27.776 123.373 28.496 124.077 29.008C124.781 29.52 125.709 29.776 126.861 29.776ZM144.964 34V10.192H150.436L151.012 14.656C151.876 13.12 153.044 11.904 154.516 11.008C156.02 10.08 157.78 9.616 159.796 9.616V16.096H158.068C156.724 16.096 155.524 16.304 154.468 16.72C153.412 17.136 152.58 17.856 151.972 18.88C151.396 19.904 151.108 21.328 151.108 23.152V34H144.964ZM174.603 34C172.107 34 170.107 33.392 168.603 32.176C167.099 30.96 166.347 28.8 166.347 25.696V15.328H162.267V10.192H166.347L167.067 3.808H172.491V10.192H178.923V15.328H172.491V25.744C172.491 26.896 172.731 27.696 173.211 28.144C173.723 28.56 174.587 28.768 175.803 28.768H178.779V34H174.603ZM195.157 34.576C192.757 34.576 190.629 34.064 188.773 33.04C186.917 32.016 185.461 30.576 184.405 28.72C183.349 26.864 182.821 24.72 182.821 22.288C182.821 19.824 183.333 17.632 184.357 15.712C185.413 13.792 186.853 12.304 188.677 11.248C190.533 10.16 192.709 9.616 195.205 9.616C197.541 9.616 199.605 10.128 201.397 11.152C203.189 12.176 204.581 13.584 205.573 15.376C206.597 17.136 207.109 19.104 207.109 21.28C207.109 21.632 207.093 22 207.061 22.384C207.061 22.768 207.045 23.168 207.013 23.584H188.917C189.045 25.44 189.685 26.896 190.837 27.952C192.021 29.008 193.445 29.536 195.109 29.536C196.357 29.536 197.397 29.264 198.229 28.72C199.093 28.144 199.733 27.408 200.149 26.512H206.389C205.941 28.016 205.189 29.392 204.133 30.64C203.109 31.856 201.829 32.816 200.293 33.52C198.789 34.224 197.077 34.576 195.157 34.576ZM195.205 14.608C193.701 14.608 192.373 15.04 191.221 15.904C190.069 16.736 189.333 18.016 189.013 19.744H200.869C200.773 18.176 200.197 16.928 199.141 16C198.085 15.072 196.773 14.608 195.205 14.608Z" fill="black"/>
</svg>
