<svg width="227" height="91" viewBox="0 0 227 91" fill="none" xmlns="http://www.w3.org/2000/svg">
<g id="sweeek-logo-es (1) 1" clip-path="url(#clip0_1010_34)">
<g id="Group">
<g id="Group_2">
<path id="Vector" d="M27.7445 57.4315C27.8431 59.147 29.1157 60.1759 31.4192 60.1759C33.771 60.1759 34.8502 59.3423 34.8502 58.0697C34.8502 57.3348 34.4576 56.5515 32.6454 56.1589L28.1371 55.1783C23.6288 54.1978 21.424 52.2386 21.424 47.9256C21.424 42.8294 25.7853 39.8896 31.6648 39.8896C37.349 39.8896 41.3177 43.222 41.3177 48.1713H34.1636C34.1636 46.506 33.1347 45.3785 31.3206 45.3785C29.6051 45.3785 28.5278 46.2604 28.5278 47.5833C28.5278 48.7109 29.4581 49.3472 31.1736 49.7398L35.7302 50.7203C39.7492 51.6023 41.954 53.4648 41.954 57.3851C41.954 62.6283 37.494 65.8137 31.1252 65.8137C24.6578 65.8137 20.5905 62.3827 20.5905 57.4334H27.7445V57.4315Z" fill="#13110C"/>
<path id="Vector_2" d="M42.7889 40.6729H50.7282L52.9813 48.6604C53.5693 50.7666 54.1089 53.1687 54.4995 55.6191C54.9405 53.0217 55.1861 52.0914 56.2634 48.6604L58.7622 40.6729H66.5041L68.8076 48.6604C69.0532 49.494 70.2291 54.0506 70.4728 55.6191C70.7667 53.8553 71.9426 49.5424 72.1883 48.6604L74.54 40.6729H82.5276L73.9521 65.1733H66.9451L64.5933 57.381C63.369 53.3621 62.7308 50.4707 62.5838 49.4418C62.3885 50.4707 61.9475 52.3815 60.379 57.528L58.0272 65.1733H50.6759L42.7889 40.6729Z" fill="#13110C"/>
<path id="Vector_3" d="M83.3135 52.8749C83.3135 45.2296 88.4581 39.8896 95.8578 39.8896C103.552 39.8896 108.354 44.9375 108.354 52.9252V54.836L90.5662 54.9346C91.0072 58.1684 92.8194 59.6885 96.1518 59.6885C98.9949 59.6885 101.002 58.6596 101.542 56.8958H108.452C107.571 62.3343 102.72 65.8137 96.0048 65.8137C88.607 65.8118 83.3135 60.4216 83.3135 52.8749ZM90.6649 50.2774H100.857C100.857 47.68 98.9465 46.0148 95.9081 46.0148C92.9181 46.0148 91.2528 47.3377 90.6649 50.2774Z" fill="#13110C"/>
<path id="Vector_4" d="M111.489 52.8749C111.489 45.2296 116.634 39.8896 124.034 39.8896C131.727 39.8896 136.53 44.9375 136.53 52.9252V54.836L118.742 54.9346C119.183 58.1684 120.997 59.6885 124.328 59.6885C127.171 59.6885 129.178 58.6596 129.718 56.8958H136.628C135.746 62.3343 130.896 65.8137 124.181 65.8137C116.783 65.8118 111.489 60.4216 111.489 52.8749ZM118.841 50.2774H129.033C129.033 47.68 127.122 46.0148 124.084 46.0148C121.094 46.0148 119.429 47.3377 118.841 50.2774Z" fill="#13110C"/>
<path id="Vector_5" d="M139.665 52.8749C139.665 45.2296 144.81 39.8896 152.21 39.8896C159.903 39.8896 164.706 44.9375 164.706 52.9252V54.836L146.918 54.9346C147.359 58.1684 149.173 59.6885 152.503 59.6885C155.347 59.6885 157.354 58.6596 157.894 56.8958H164.804C163.922 62.3343 159.072 65.8137 152.357 65.8137C144.957 65.8118 139.665 60.4216 139.665 52.8749ZM147.015 50.2774H157.207C157.207 47.68 155.296 46.0148 152.258 46.0148C149.27 46.0148 147.603 47.3377 147.015 50.2774Z" fill="#13110C"/>
<path id="Vector_6" d="M169.164 65.1734V28.2256H176.711V49.4922L184.65 40.6711H194.107L184.896 50.3742L193.813 65.1734H185.091L179.602 56.0099L176.711 59.0483V65.1734H169.164Z" fill="#13110C"/>
<path id="Vector_7" d="M197.387 61.4013C197.387 58.9509 199.396 56.9414 201.895 56.9414C204.297 56.9414 206.403 58.9509 206.403 61.4013C206.403 63.8034 204.297 65.8109 201.895 65.8109C199.396 65.8128 197.387 63.8034 197.387 61.4013Z" fill="#13110C"/>
</g>
<path id="Vector_8" d="M227.77 -0.392578H-0.775513V90.6053H227.77V-0.392578Z" stroke="white" stroke-miterlimit="10"/>
<g id="Group_3">
<g id="Group_4">
<path id="Vector_9" d="M71.6613 14.1009C71.9863 13.7547 72.493 13.513 73.1815 13.3757L73.3498 13.4491C73.8081 13.6097 74.1794 14.0081 74.4618 14.6444C74.9627 15.5166 75.3708 15.9518 75.6861 15.9518H75.7267C75.8021 15.9518 75.9375 15.8996 76.1347 15.7971C76.2102 15.7642 76.4655 15.5263 76.9026 15.0853C76.9026 14.8088 76.7556 14.3601 76.4616 13.7412C75.5545 12.3545 74.4231 11.6602 73.0693 11.6602H72.8372C71.878 11.6602 70.9709 11.9909 70.118 12.6504C68.7313 13.9636 68.037 15.6694 68.037 17.7659V18.0328C68.037 20.2222 68.9866 22.2916 70.8858 24.245C71.9901 25.0418 73.1215 25.4402 74.2781 25.4402H74.3825C74.6978 25.4402 74.9898 25.388 75.2625 25.2855C76.5738 24.8484 77.6007 24.0574 78.3434 22.9124C79.6663 20.6032 80.3277 18.878 80.3277 17.735C80.3161 17.4333 80.2736 17.1509 80.2001 16.8859C80.2001 16.795 80.0395 16.7506 79.7204 16.7506C78.7167 16.7506 77.6704 16.8047 76.5757 16.9111C74.5334 17.1509 73.5122 17.5899 73.5122 18.2301V18.2552C73.5122 18.35 73.605 18.4583 73.7926 18.5782C74.2085 18.6769 74.4173 18.8064 74.4173 18.9689V19.0424C76.3165 18.733 77.5833 18.5434 78.2177 18.4719C78.0088 19.3847 77.8077 20.079 77.6104 20.5529C76.6183 22.8196 75.5197 23.9529 74.3148 23.9529C73.7926 23.9529 73.2801 23.746 72.7792 23.334C71.174 21.8177 70.3714 19.963 70.3714 17.7659V17.5126C70.3656 16.0388 70.7968 14.9016 71.6613 14.1009Z" fill="white"/>
<path id="Vector_10" d="M25.0384 22.5338C25.1061 22.7349 25.3305 22.8355 25.7153 22.8355H25.8759C26.2782 22.8355 26.6456 22.5918 26.9763 22.1044C27.5179 20.9324 27.8563 20.2787 27.9956 20.1394C27.9956 19.8397 29.2024 19.6153 31.6181 19.4683L32.4439 19.5225C32.8771 20.5862 33.3278 21.5261 33.7919 22.3404C34.641 24.2725 35.3546 25.2376 35.931 25.2376H36.0992C36.3623 25.1931 36.4957 25.1428 36.4957 25.0906C36.7201 24.9881 36.8303 24.8276 36.8303 24.6071C36.8303 24.2048 36.5963 23.7851 36.1263 23.3461C35.5132 22.6576 34.8266 21.3424 34.0666 19.4026L34.6294 19.2614C35.2154 19.1144 35.5074 18.8069 35.5074 18.3427C35.5074 18.3156 35.4707 18.2943 35.401 18.275C35.401 18.0739 35.2308 17.9733 34.8905 17.9733L33.8171 18.0274L33.5289 18.0004C32.7243 15.6756 32.322 13.9195 32.322 12.7339V12.4786C31.6683 11.8249 31.1152 11.5 30.6588 11.5H30.5775C30.183 11.5 29.8774 11.734 29.6589 12.204C29.4074 12.9815 29.1773 13.6178 28.9684 14.109C28.512 15.165 27.7848 16.4783 26.7887 18.0526C26.4928 18.54 26.2762 18.8011 26.1389 18.8378L24.2474 19.4006C23.8625 19.5747 23.6111 19.7894 23.4893 20.0447C23.4893 20.2013 23.6208 20.3425 23.8857 20.4663C24.7851 20.6229 25.2338 20.739 25.2338 20.8144C25.0674 21.4817 24.9862 21.911 24.9862 22.1025L25.0384 22.5338Z" fill="white"/>
<path id="Vector_11" d="M40.1914 13.749C40.4603 13.749 40.5956 13.8438 40.5956 14.0353C40.6982 14.4917 40.7504 14.9655 40.7504 15.4587L40.5956 18.7408V19.0812C40.5956 20.0753 40.7658 21.4388 41.1062 23.1698V23.4096C41.1062 23.69 41.0269 23.8486 40.8664 23.8873C40.7678 23.8873 40.5589 23.9298 40.2398 24.0149C40.1585 23.9472 40.0174 23.8583 39.8143 23.7442C39.4275 21.6844 39.236 20.0173 39.236 18.7427V18.1219C39.236 17.2148 39.3269 16.2962 39.5068 15.3659C39.4642 15.3659 39.4255 15.2092 39.3907 14.8978L39.2147 14.7818C39.3037 14.7818 39.3791 14.5149 39.4429 13.9792C39.6905 13.8264 39.9129 13.751 40.1063 13.751H40.1914V13.749Z" fill="#12100B"/>
<path id="Vector_12" d="M42.5219 15.5479C42.8855 15.5479 43.1041 15.6388 43.1756 15.8186L43.2395 16.0836C43.2395 16.3563 42.9513 16.5439 42.373 16.6464H42.2183C41.7967 16.6174 41.5858 16.4897 41.5858 16.2634L41.5646 16.1783V16.0623C41.6748 15.718 41.9494 15.5479 42.3923 15.5479H42.5219ZM42.8623 17.9325C43.0286 18.8744 43.1118 19.8627 43.1118 20.9013V21.5221L43.0693 23.8158C42.9532 23.8932 42.7811 23.9551 42.5548 24.0015L42.3962 24.1717H42.3749C42.2512 24.1717 42.1371 24.0789 42.0345 23.8893C42.0345 23.9783 42.021 24.0228 41.992 24.0228C41.7715 23.8313 41.6632 23.4213 41.6632 22.7908L41.8605 20.1837C41.8315 19.8395 41.8179 19.3153 41.8179 18.6075C41.8179 18.0118 42.0249 17.7159 42.4388 17.7159C42.7211 17.7159 42.8623 17.7875 42.8623 17.9325Z" fill="#12100B"/>
<path id="Vector_13" d="M46.1968 18.6074C46.4869 18.6074 46.7538 18.6867 46.9994 18.8472C46.9704 18.8975 46.9569 18.973 46.9569 19.0755L47.069 19.3462V19.4797C46.9453 19.7311 46.6803 19.9226 46.2722 20.0541C45.8583 20.1778 45.5895 20.348 45.4657 20.5647C45.3129 20.9012 45.2375 21.17 45.2375 21.3711V21.5046C45.2375 21.9146 45.4773 22.1622 45.9589 22.2434H46.2606C46.7383 22.2434 47.5584 21.9823 48.7188 21.4582C49.2178 21.2493 49.5427 21.1449 49.6955 21.1449H49.738C49.9856 21.3847 50.1132 21.5665 50.121 21.6864C50.1074 21.7676 49.8928 22.0036 49.4789 22.3923C49.386 22.5915 49.2816 22.6901 49.1656 22.6901C47.8523 23.4734 46.7344 23.8641 45.8158 23.8641C44.8217 23.8641 44.1544 23.3903 43.814 22.4407L43.7715 21.9513V21.7328C43.7715 20.642 44.2182 19.7137 45.1098 18.9459C45.4638 18.7235 45.8042 18.6113 46.1291 18.6113H46.1968V18.6074Z" fill="#12100B"/>
<path id="Vector_14" d="M53.1962 19.4301C53.2813 19.7338 53.3238 19.9716 53.3238 20.1418C53.3238 20.8497 52.7726 21.4222 51.6721 21.8573V21.8786C51.97 22.3698 52.3491 22.6174 52.8132 22.6174C53.4573 22.6174 54.1419 22.1049 54.8691 21.0779C55.3178 20.5751 55.6601 20.3236 55.8942 20.3236H55.9367L55.9793 20.372V20.5905L55.958 20.6756C55.9657 20.7104 55.9928 20.7356 56.0431 20.7491C56.1379 20.7491 56.1998 20.6737 56.2288 20.5209H56.2713V20.5422C56.2713 20.7839 56.0624 21.1785 55.6447 21.7316C55.5712 21.8593 55.519 21.9985 55.49 22.1513C55.2946 22.1977 55.1979 22.277 55.1979 22.3911C54.7976 23.0468 54.2096 23.509 53.4341 23.7778C53.1788 23.8339 52.9718 23.8629 52.8132 23.8629H52.5947C51.5503 23.8629 50.5233 23.1086 49.5157 21.6001L49.4093 19.8788V19.7202C49.4093 19.0162 49.6375 18.5772 50.094 18.4031C50.5852 18.1266 51.0184 17.9893 51.3898 17.9893C52.1305 17.9873 52.732 18.467 53.1962 19.4301ZM51.0939 20.9657C51.2524 20.9657 51.5 20.84 51.8365 20.5886C51.8926 20.4107 51.9216 20.2695 51.9216 20.1631C51.9216 19.7338 51.7302 19.4379 51.3472 19.2715L51.1828 19.2503C50.9623 19.2503 50.854 19.3199 50.854 19.4572C50.7767 19.5984 50.738 19.8034 50.738 20.0722C50.738 20.4938 50.856 20.7917 51.0939 20.9657Z" fill="#12100B"/>
<path id="Vector_15" d="M58.0874 13.3763L58.157 13.4072C58.3659 13.4923 58.4703 13.6045 58.4703 13.7418C58.4703 13.7844 58.4607 13.8289 58.4433 13.8753L58.0874 14.8094L57.981 15.0705C57.5343 16.1652 57.0217 16.7667 56.4415 16.8769H56.3719C56.2056 16.8769 56.0644 16.8537 55.9464 16.8073V16.7976C55.9464 16.6738 56.0779 16.2658 56.339 15.5772L56.573 15.0628C56.8071 14.4478 56.9753 13.9449 57.0778 13.5542C57.279 13.384 57.4917 13.2989 57.7141 13.2989C57.836 13.297 57.9598 13.3241 58.0874 13.3763Z" fill="#12100B"/>
<path id="Vector_16" d="M61.7622 18.4102C62.2786 18.4102 62.5648 18.5378 62.6229 18.7931C62.7176 19.031 62.766 19.1857 62.766 19.2611C62.6712 19.4197 62.4527 19.5396 62.1123 19.617C61.0891 19.7756 60.5785 19.9148 60.5785 20.0309C60.7313 20.2784 61.1104 20.4892 61.7196 20.6633C62.7853 20.907 63.557 21.1468 64.0347 21.3808C64.4776 21.6497 64.6981 22.0055 64.6981 22.4484C64.6981 23.1737 64.0502 23.663 62.7544 23.9144C62.3753 23.9821 62.0194 24.015 61.6868 24.015C60.3735 23.926 59.716 23.7732 59.716 23.5585C59.5786 23.4212 59.509 23.2491 59.509 23.0441V22.9377C59.509 22.6689 59.6541 22.4233 59.9442 22.1989C60.6772 22.5528 61.2961 22.7308 61.8028 22.7308C62.209 22.7308 62.5436 22.6109 62.8066 22.3691V22.3478C62.4275 22.139 61.6945 21.903 60.6076 21.6419C59.5342 21.3305 58.9984 20.9399 58.9984 20.468V20.4041C58.9984 19.6789 59.4471 19.1199 60.3465 18.7254C60.8029 18.5165 61.2149 18.4121 61.5843 18.4121H61.7622V18.4102Z" fill="#12100B"/>
<path id="Vector_17" d="M87.6867 17.4609C87.9633 17.4609 88.149 17.695 88.2438 18.1611C88.2438 18.4048 88.3927 19.1977 88.6905 20.54C88.8994 21.2865 89.2031 21.917 89.6034 22.4296C89.8413 22.7874 89.9593 23.0639 89.9593 23.2573V23.3908C89.9593 23.5571 89.8548 23.6403 89.646 23.6403C89.4448 23.7718 89.3056 23.8376 89.2321 23.8376C88.8395 23.6925 88.4875 23.3792 88.1761 22.8976C88.0175 22.594 87.7274 21.9267 87.3096 20.9016L87.1761 20.7372C86.6636 21.5263 86.2169 22.1394 85.8378 22.5746C85.3736 23.0601 84.8417 23.3018 84.2402 23.3018C83.6658 23.3018 83.2925 23.004 83.1204 22.4102L83.0991 22.0543C83.0991 21.2536 83.6175 20.2615 84.6541 19.0759C85.2982 18.5518 86.0409 18.105 86.8841 17.7375C87.1143 17.5538 87.3463 17.4609 87.5804 17.4609H87.6867ZM84.6328 21.8571H84.6541C84.9945 21.8571 85.3368 21.5592 85.685 20.9655C86.3252 20.1764 86.6462 19.5594 86.6462 19.1184L86.6249 19.0972H86.5766C86.3252 19.1745 85.8726 19.5517 85.2169 20.2286C84.8127 20.7411 84.6116 21.2788 84.6116 21.8377L84.6328 21.8571Z" fill="#12100B"/>
<path id="Vector_18" d="M93.9289 17.6133C94.3718 17.6133 94.5922 17.7138 94.5922 17.9169C94.6425 18.1297 94.7179 18.2863 94.8204 18.3888V18.4314C93.5595 19.0677 92.6466 20.1005 92.0799 21.5278C91.8111 22.2898 91.6757 22.9068 91.6757 23.3806C91.2541 23.576 90.9736 23.6727 90.8305 23.6727C90.8305 23.5063 90.6526 23.3439 90.2948 23.1834C90.2948 22.9435 90.0995 21.9823 89.7107 20.2997C89.6218 19.9535 89.5773 19.5976 89.5773 19.2321V18.94C89.6411 18.706 89.8558 18.5687 90.2194 18.5261H90.2716C90.7067 18.5261 90.9717 18.8298 91.0684 19.439L91.0413 19.7891C91.3701 19.5067 91.8401 19.0155 92.4493 18.3173C92.956 17.8473 93.4299 17.6113 93.8728 17.6113H93.9289V17.6133Z" fill="#12100B"/>
<path id="Vector_19" d="M99.2668 14.2852C99.2668 14.3954 99.3576 14.4863 99.5375 14.5617C99.669 14.6546 99.7522 15.2116 99.787 16.2347L99.7773 18.3428C99.7773 19.3581 100.129 20.5553 100.833 21.9323C101.116 22.2573 101.259 22.4971 101.259 22.6499L101.28 22.8046C101.28 22.8936 101.16 23.1082 100.918 23.4467H100.584C100.095 23.4467 99.7464 23.1218 99.5375 22.47C99.4427 22.2147 99.2784 21.9633 99.0482 21.7157C98.8683 22.1857 98.4738 22.6228 97.8646 23.0212C97.1529 23.3829 96.3444 23.5627 95.4374 23.5627C95.0796 23.3036 94.9017 23.1643 94.9017 23.1431C94.8301 22.7853 94.7953 22.5377 94.7953 22.4004V22.2727C94.7953 21.8666 95.2304 21.2129 96.1008 20.3136C96.9246 19.6154 97.59 19.2363 98.0928 19.1725C98.2669 19.0912 98.3539 18.9713 98.3539 18.8108C98.1953 17.1437 98.1141 16.0316 98.1141 15.4765V14.877L98.82 14.3567C98.8974 14.3103 98.967 14.2871 99.0269 14.2871H99.2668V14.2852ZM96.6423 22.2708C97.2573 22.2708 97.7621 21.7796 98.1566 20.799C98.2282 20.6539 98.263 20.5418 98.263 20.4644C97.59 20.681 97.1026 21.0504 96.797 21.5745C96.5707 21.9498 96.4566 22.1741 96.4566 22.2495L96.6423 22.2708Z" fill="#12100B"/>
<path id="Vector_20" d="M105.597 19.0376C105.682 19.3412 105.725 19.5791 105.725 19.7493C105.725 20.4571 105.173 21.0296 104.073 21.4648V21.486C104.371 21.9773 104.75 22.2248 105.214 22.2248C105.858 22.2248 106.543 21.7123 107.27 20.6853C107.719 20.1825 108.061 19.9311 108.295 19.9311H108.337L108.38 19.9794V20.198L108.359 20.2831C108.367 20.3179 108.394 20.343 108.444 20.3566C108.539 20.3566 108.601 20.2811 108.63 20.1283H108.672V20.1496C108.672 20.3914 108.463 20.7859 108.045 21.339C107.972 21.4667 107.92 21.6059 107.891 21.7587C107.695 21.8051 107.599 21.8844 107.599 21.9985C107.198 22.6542 106.61 23.1164 105.835 23.3852C105.58 23.4413 105.373 23.4703 105.214 23.4703H104.995C103.951 23.4703 102.924 22.7161 101.916 21.2075L101.81 19.4862V19.3277C101.81 18.6237 102.038 18.1846 102.495 18.0106C102.986 17.734 103.419 17.5967 103.791 17.5967C104.531 17.5928 105.133 18.0744 105.597 19.0376ZM103.493 20.5712C103.651 20.5712 103.899 20.4455 104.235 20.1941C104.291 20.0162 104.32 19.875 104.32 19.7686C104.32 19.3412 104.129 19.0434 103.746 18.877L103.582 18.8558C103.361 18.8558 103.253 18.9254 103.253 19.0627C103.176 19.2039 103.137 19.4089 103.137 19.6777C103.137 20.1013 103.257 20.3991 103.493 20.5712Z" fill="#12100B"/>
<path id="Vector_21" d="M111.99 17.2907C112.177 17.7259 112.348 18.2655 112.5 18.9095C112.79 20.8958 113.015 22.1974 113.175 22.8124C113.222 22.8124 113.258 22.9478 113.287 23.2166V23.2592C113.287 23.499 113.131 23.6209 112.819 23.6209H112.777C112.328 23.6209 112.102 23.5377 112.102 23.3714C111.889 22.9362 111.717 22.4005 111.587 21.768L111.119 18.9637H111.098C110.599 19.5729 110.011 20.7507 109.334 22.501C109.054 23.0716 108.899 23.3617 108.866 23.3714C108.866 23.325 108.793 23.2959 108.648 23.2805H108.334C108.203 23.2805 108.137 23.2147 108.137 23.0832L107.888 22.6364C108.083 21.9286 108.18 20.685 108.18 18.9095C108.478 18.7297 108.632 18.6194 108.648 18.5807C108.648 18.5169 108.679 18.486 108.739 18.486C109.259 18.5575 109.52 18.6329 109.52 18.7142L109.456 18.9115L109.477 18.9327H109.499C109.781 18.6639 110.04 18.3158 110.274 17.8864C110.649 17.3371 110.994 17.0625 111.305 17.0625C111.762 17.1747 111.99 17.252 111.99 17.2907Z" fill="#12100B"/>
<g id="Group_5">
<g id="Group_6">
<path id="Vector_22" d="M36.8151 10.3105H23.1664C22.4546 10.3105 21.8783 10.8869 21.8783 11.5986V25.2473C21.8783 25.959 22.4546 26.5353 23.1664 26.5353H36.8151C37.5268 26.5353 38.1032 25.959 38.1032 25.2473V11.6006C38.1032 10.8888 37.5268 10.3105 36.8151 10.3105ZM36.494 25.0887C36.494 25.1428 36.3625 25.1912 36.0976 25.2357H35.9293C35.3529 25.2357 34.6393 24.2706 33.7902 22.3384C33.326 21.5242 32.8754 20.5862 32.4422 19.5205L31.6163 19.4664C29.2007 19.6134 27.9938 19.8377 27.9938 20.1375C27.8546 20.2767 27.5161 20.9305 26.9746 22.1025C26.6438 22.5899 26.2764 22.8336 25.8741 22.8336H25.7135C25.3287 22.8336 25.1024 22.733 25.0366 22.5318L24.9825 22.1025C24.9825 21.911 25.0656 21.4817 25.23 20.8144C25.23 20.739 24.7813 20.6229 23.882 20.4663C23.619 20.3406 23.4855 20.1994 23.4855 20.0447C23.6054 19.7894 23.8588 19.5747 24.2437 19.4006L26.1352 18.8378C26.2744 18.803 26.491 18.54 26.785 18.0526C27.783 16.4783 28.5083 15.1631 28.9647 14.109C29.1755 13.6178 29.4057 12.9815 29.6552 12.204C29.8737 11.734 30.1812 11.5 30.5739 11.5H30.6551C31.1115 11.5 31.6647 11.8268 32.3184 12.4786V12.7339C32.3184 13.9195 32.7207 15.6737 33.5252 18.0004L33.8134 18.0274L34.8868 17.9733C35.2272 17.9733 35.3974 18.0738 35.3974 18.275C35.469 18.2924 35.5038 18.3156 35.5038 18.3427C35.5038 18.8088 35.2117 19.1144 34.6257 19.2614L34.0629 19.4025C34.823 21.3443 35.5096 22.6576 36.1227 23.3461C36.5927 23.7851 36.8267 24.2048 36.8267 24.6071C36.8306 24.8256 36.7184 24.9862 36.494 25.0887Z" fill="#12100B"/>
<path id="Vector_23" d="M30.7129 15.3779C30.0012 16.4823 29.4713 17.4222 29.1232 18.1958V18.2229H29.1502C29.4133 18.2229 30.1269 18.0837 31.2893 17.8071L31.678 17.78C31.357 16.5732 31.1036 15.8402 30.9199 15.5791L30.7129 15.3779Z" fill="#12100B"/>
</g>
</g>
<path id="Vector_24" d="M81.0064 10.3105H67.3577C66.6459 10.3105 66.0696 10.8869 66.0696 11.5986V25.2473C66.0696 25.959 66.6459 26.5353 67.3577 26.5353H81.0064C81.7181 26.5353 82.2945 25.959 82.2945 25.2473V11.6006C82.2945 10.8888 81.7181 10.3105 81.0064 10.3105ZM78.3412 22.9148C77.6005 24.0578 76.5735 24.8489 75.2603 25.2879C74.9876 25.3904 74.6955 25.4426 74.3803 25.4426H74.2758C73.1193 25.4426 71.9878 25.0442 70.8835 24.2474C68.9842 22.294 68.0346 20.2226 68.0346 18.0352V17.7683C68.0346 15.6698 68.727 13.9659 70.1156 12.6527C70.9686 11.9912 71.8756 11.6625 72.8349 11.6625H73.067C74.4209 11.6625 75.5523 12.3568 76.4594 13.7435C76.7534 14.3624 76.9004 14.8111 76.9004 15.0877C76.4633 15.5286 76.208 15.7665 76.1325 15.7994C75.9353 15.9019 75.7999 15.9541 75.7244 15.9541H75.6838C75.3686 15.9541 74.9605 15.519 74.4596 14.6467C74.1772 14.0104 73.8058 13.612 73.3475 13.4515L73.1792 13.378C72.4907 13.5133 71.984 13.7551 71.659 14.1032C70.7945 14.9039 70.3632 16.0412 70.3632 17.5168V17.7702C70.3632 19.9673 71.1658 21.824 72.7711 23.3384C73.272 23.7522 73.7846 23.9572 74.3068 23.9572C75.5117 23.9572 76.6102 22.8239 77.6024 20.5572C77.7997 20.0833 78.0028 19.389 78.2097 18.4761C77.5753 18.5458 76.3085 18.7372 74.4093 19.0467V18.9732C74.4093 18.8127 74.2004 18.6811 73.7846 18.5825C73.597 18.4626 73.5041 18.3562 73.5041 18.2595V18.2344C73.5041 17.5942 74.5253 17.1552 76.5677 16.9153C77.6604 16.809 78.7087 16.7548 79.7125 16.7548C80.0316 16.7548 80.1921 16.8012 80.1921 16.8902C80.2676 17.1552 80.3101 17.4375 80.3198 17.7393C80.3256 18.8804 79.6641 20.6075 78.3412 22.9148Z" fill="#12100B"/>
</g>
</g>
<g id="Group_7">
<g id="Group_8">
<path id="Vector_25" d="M119.215 22.7931C119.215 23.5551 119.78 24.0231 120.691 24.0231C121.687 24.0231 122.302 23.5802 122.302 22.855C122.302 22.2767 122.02 21.9827 121.258 21.7854L120.261 21.5282C119.254 21.271 118.774 20.7043 118.774 19.979C118.774 18.9946 119.587 18.3447 120.803 18.3447C122.02 18.3447 122.784 18.9965 122.82 20.066H122.267C122.23 19.304 121.689 18.8611 120.803 18.8611C119.857 18.8611 119.341 19.2537 119.341 19.979C119.341 20.4838 119.685 20.8397 120.399 21.0234L121.383 21.2806C122.416 21.5514 122.871 22.0311 122.871 22.855C122.871 23.8626 122.01 24.5395 120.72 24.5395C119.467 24.5395 118.666 23.8626 118.666 22.7931H119.215Z" fill="#13110C"/>
<path id="Vector_26" d="M124.06 21.4527C124.06 19.6076 125.178 18.3428 126.826 18.3428C128.363 18.3428 129.419 19.449 129.419 21.0601V21.4527H124.625C124.673 23.0638 125.51 24.023 126.899 24.023C127.943 24.023 128.609 23.5685 128.841 22.6944H129.419C129.075 23.9109 128.226 24.5394 126.899 24.5394C125.191 24.5375 124.06 23.3094 124.06 21.4527ZM124.638 20.9847H128.843C128.843 19.7063 128.044 18.8572 126.827 18.8572C125.621 18.8592 124.773 19.6947 124.638 20.9847Z" fill="#13110C"/>
<path id="Vector_27" d="M136.894 18.3428C138.16 18.3428 139.106 19.0932 139.377 20.2111H138.799C138.553 19.3388 137.766 18.8456 136.894 18.8456C135.578 18.8456 134.644 19.8533 134.644 21.4527C134.644 22.9767 135.505 24.023 136.82 24.023C137.766 24.023 138.553 23.4815 138.824 22.6827H139.402C139.083 23.8006 138.073 24.5394 136.82 24.5394C135.197 24.5394 134.091 23.3094 134.091 21.4662C134.091 19.596 135.197 18.3428 136.894 18.3428Z" fill="#13110C"/>
<path id="Vector_28" d="M143.373 18.3428C145.057 18.3428 146.299 19.6579 146.299 21.4411C146.299 23.2243 145.057 24.5394 143.373 24.5394C141.688 24.5394 140.446 23.2243 140.446 21.4411C140.446 19.6579 141.688 18.3428 143.373 18.3428ZM143.373 24.0211C144.75 24.0211 145.72 22.9516 145.72 21.4392C145.72 19.9267 144.75 18.8572 143.373 18.8572C141.995 18.8572 141.025 19.9267 141.025 21.4392C141.025 22.9516 141.995 24.0211 143.373 24.0211Z" fill="#13110C"/>
<path id="Vector_29" d="M147.848 24.3905V18.4898H148.302L148.426 19.6328C148.819 18.8089 149.631 18.3428 150.517 18.3428C152.19 18.3428 152.816 19.3272 152.816 20.8009V24.3905H152.251V20.9112C152.251 19.3504 151.575 18.8572 150.505 18.8572C149.165 18.8572 148.414 19.8533 148.414 21.3405V24.3885H147.848V24.3905Z" fill="#13110C"/>
<path id="Vector_30" d="M153.798 18.4893H154.402L156.16 22.7809C156.284 23.0885 156.406 23.396 156.541 23.8137C156.665 23.396 156.787 23.1136 156.922 22.7809L158.68 18.4893H159.27L156.823 24.3901H156.245L153.798 18.4893Z" fill="#13110C"/>
<path id="Vector_31" d="M160.216 16.1784C160.216 15.896 160.451 15.6504 160.733 15.6504C161.004 15.6504 161.249 15.896 161.249 16.1784C161.249 16.4491 161.004 16.6832 160.733 16.6832C160.449 16.6812 160.216 16.4491 160.216 16.1784ZM160.449 18.4896H161.013V24.3903H160.449V18.4896Z" fill="#13110C"/>
<path id="Vector_32" d="M162.564 21.4527C162.564 19.6076 163.682 18.3428 165.329 18.3428C166.867 18.3428 167.923 19.449 167.923 21.0601V21.4527H163.128C163.177 23.0638 164.014 24.023 165.403 24.023C166.447 24.023 167.113 23.5685 167.345 22.6944H167.923C167.579 23.9109 166.73 24.5394 165.403 24.5394C163.695 24.5375 162.564 23.3094 162.564 21.4527ZM163.142 20.9847H167.347C167.347 19.7063 166.548 18.8572 165.331 18.8572C164.125 18.8592 163.275 19.6947 163.142 20.9847Z" fill="#13110C"/>
<path id="Vector_33" d="M172.289 18.8959H171.846C170.751 18.8959 170.039 19.6947 170.039 20.801V24.3906H169.474V18.4897H170.002L170.051 19.4355C170.285 18.7721 170.937 18.3408 171.772 18.3408C171.956 18.3408 172.091 18.3524 172.289 18.4027V18.8959Z" fill="#13110C"/>
<path id="Vector_34" d="M174.341 24.3902V18.9806H173.148V18.4894H174.341V16.6211H174.906V18.4894H176.099V18.9806H174.906V24.3902H174.341Z" fill="#13110C"/>
<path id="Vector_35" d="M176.899 21.4527C176.899 19.6076 178.017 18.3428 179.665 18.3428C181.202 18.3428 182.258 19.449 182.258 21.0601V21.4527H177.464C177.512 23.0638 178.35 24.023 179.738 24.023C180.783 24.023 181.448 23.5685 181.68 22.6944H182.258C181.914 23.9109 181.065 24.5394 179.738 24.5394C178.029 24.5375 176.899 23.3094 176.899 21.4527ZM177.475 20.9847H181.68C181.68 19.7063 180.881 18.8572 179.665 18.8572C178.46 18.8592 177.611 19.6947 177.475 20.9847Z" fill="#13110C"/>
<path id="Vector_36" d="M186.93 21.4527C186.93 19.6076 188.048 18.3428 189.696 18.3428C191.233 18.3428 192.289 19.449 192.289 21.0601V21.4527H187.495C187.543 23.0638 188.381 24.023 189.769 24.023C190.814 24.023 191.479 23.5685 191.711 22.6944H192.289C191.945 23.9109 191.096 24.5394 189.769 24.5394C188.06 24.5375 186.93 23.3094 186.93 21.4527ZM187.506 20.9847H191.711C191.711 19.7063 190.912 18.8572 189.696 18.8572C188.491 18.8592 187.642 19.6947 187.506 20.9847Z" fill="#13110C"/>
<path id="Vector_37" d="M193.84 24.3905V18.4898H194.294L194.418 19.6328C194.81 18.8089 195.623 18.3428 196.509 18.3428C198.181 18.3428 198.808 19.3272 198.808 20.8009V24.3905H198.243V20.9112C198.243 19.3504 197.566 18.8572 196.497 18.8572C195.157 18.8572 194.406 19.8533 194.406 21.3405V24.3885H193.84V24.3905Z" fill="#13110C"/>
</g>
</g>
</g>
</g>
<defs>
<clipPath id="clip0_1010_34">
<rect width="227" height="90.2116" fill="white"/>
</clipPath>
</defs>
</svg>
